# xmcd CD database file
#
# Track frame offsets:
#	150
#	14466
#	27253
#	40285
#	54151
#	64775
#	73325
#	90309
#	107571
#	121232
#	134044
#	144344
#	153975
#	170029
#	184373
#	200514
#	210145
#
# Disc length: 2930 seconds
#
# Revision: 0
# Processed by: cddbd v1.5.2PL0 Copyright (c) Steve Scherf et al.
# Submitted via: CDex 1.51
#
DISCID=ef0b7011
DTITLE=Billie Holiday - Kind Of Holiday [CD5] - Jazz At The Philharmonic and At Monterey Jazz Festival
DYEAR=2009
DGENRE=Jazz
TTITLE0=Body and Soul (Green/Heyman/Sour/Eyton)
TTITLE1=Strange Fruit (Allen)
TTITLE2=He's Funny That Way (Whiting/Moret)
TTITLE3=The Man I Love (Gershwin)
TTITLE4=Gee Baby Ain't I Good To You (Redman/Razaf)
TTITLE5=All Of Me (Simons/Mark)
TTITLE6=Ain't Nobody's Business But My Own (Grainger/Robbins)
TTITLE7=Willow Weep For Me (Ronnell)
TTITLE8=When Your Lover Has Gone (Ellington/Gordon/Mills)
TTITLE9=God Bless The Child (Herzog Jr./Holiday)
TTITLE10=I Only Have Eyes For You (Warren/Dubin)
TTITLE11=Good Morning Heartache (Higginbotham/Drake/Fisher)
TTITLE12=Them There Eyes (Pinkard/Tracey/Tauber)
TTITLE13=Billie's Blues (Holiday)
TTITLE14=Oh, What A Little Moonlight Can Do (Woods)
TTITLE15=Trav'lin Light (Mundy/Young/Mercer)
TTITLE16=Lover Come Back To Me (Romberg/Hammerstein)
EXTD=YEAR: 2009
EXTT0=
EXTT1=
EXTT2=
EXTT3=
EXTT4=
EXTT5=
EXTT6=
EXTT7=
EXTT8=
EXTT9=
EXTT10=
EXTT11=
EXTT12=
EXTT13=
EXTT14=
EXTT15=
EXTT16=
PLAYORDER=
